<mxfile host="app.diagrams.net" modified="2023-12-16T13:18:52.974Z" agent="Mozilla/5.0 (X11; Linux x86_64) AppleWebKit/537.36 (KHTML, like Gecko) Chrome/120.0.0.0 Safari/537.36" etag="BL8T8eVqmqVBW-Fs2iDe" version="22.1.11" type="github">
  <diagram name="Page-1" id="cvql2i7g2SIRen5Ewe3r">
    <mxGraphModel dx="2868" dy="1704" grid="1" gridSize="10" guides="1" tooltips="1" connect="1" arrows="1" fold="1" page="1" pageScale="1" pageWidth="827" pageHeight="1169" math="0" shadow="0">
      <root>
        <mxCell id="0" />
        <mxCell id="1" parent="0" />
        <mxCell id="pzTThXN7RnoiWXwmlUfZ-3" value="" style="rounded=1;whiteSpace=wrap;html=1;" vertex="1" parent="1">
          <mxGeometry x="159" y="80" width="760" height="400" as="geometry" />
        </mxCell>
        <mxCell id="pzTThXN7RnoiWXwmlUfZ-11" value="" style="group" vertex="1" connectable="0" parent="1">
          <mxGeometry x="2082" y="80" width="760" height="400" as="geometry" />
        </mxCell>
        <mxCell id="pzTThXN7RnoiWXwmlUfZ-5" value="" style="rounded=1;whiteSpace=wrap;html=1;fillColor=#f5f5f5;strokeColor=#666666;fontColor=#333333;" vertex="1" parent="pzTThXN7RnoiWXwmlUfZ-11">
          <mxGeometry width="760" height="400" as="geometry" />
        </mxCell>
        <mxCell id="pzTThXN7RnoiWXwmlUfZ-7" value="&lt;h1&gt;Data&lt;/h1&gt;" style="text;html=1;strokeColor=none;fillColor=none;align=center;verticalAlign=middle;whiteSpace=wrap;rounded=0;glass=0;" vertex="1" parent="pzTThXN7RnoiWXwmlUfZ-11">
          <mxGeometry x="350" y="370" width="60" height="30" as="geometry" />
        </mxCell>
        <mxCell id="pzTThXN7RnoiWXwmlUfZ-8" value="&lt;h2&gt;Repository&lt;/h2&gt;" style="rounded=1;whiteSpace=wrap;html=1;fillColor=#dae8fc;strokeColor=#6c8ebf;" vertex="1" parent="pzTThXN7RnoiWXwmlUfZ-11">
          <mxGeometry x="116" y="30" width="530" height="130" as="geometry" />
        </mxCell>
        <mxCell id="pzTThXN7RnoiWXwmlUfZ-9" value="&lt;h2&gt;Data Source&lt;/h2&gt;" style="rounded=1;whiteSpace=wrap;html=1;fillColor=#dae8fc;strokeColor=#6c8ebf;" vertex="1" parent="pzTThXN7RnoiWXwmlUfZ-11">
          <mxGeometry x="116" y="220" width="530" height="130" as="geometry" />
        </mxCell>
        <mxCell id="pzTThXN7RnoiWXwmlUfZ-12" value="" style="group" vertex="1" connectable="0" parent="1">
          <mxGeometry x="1119" y="79" width="760" height="400" as="geometry" />
        </mxCell>
        <mxCell id="pzTThXN7RnoiWXwmlUfZ-4" value="" style="rounded=1;whiteSpace=wrap;html=1;fillColor=#f5f5f5;strokeColor=#666666;fontColor=#333333;" vertex="1" parent="pzTThXN7RnoiWXwmlUfZ-12">
          <mxGeometry width="760" height="400" as="geometry" />
        </mxCell>
        <mxCell id="pzTThXN7RnoiWXwmlUfZ-10" value="&lt;h1&gt;Domain&lt;/h1&gt;" style="text;html=1;strokeColor=none;fillColor=none;align=center;verticalAlign=middle;whiteSpace=wrap;rounded=0;" vertex="1" parent="pzTThXN7RnoiWXwmlUfZ-12">
          <mxGeometry x="350" y="370" width="60" height="30" as="geometry" />
        </mxCell>
      </root>
    </mxGraphModel>
  </diagram>
</mxfile>
